<svg width="20" height="21" viewBox="0 0 20 21" fill="none" xmlns="http://www.w3.org/2000/svg">
<path fill-rule="evenodd" clip-rule="evenodd" d="M5.29279 7.79296C5.48031 7.60549 5.73462 7.50017 5.99979 7.50017C6.26495 7.50017 6.51926 7.60549 6.70679 7.79296L9.99979 11.086L13.2928 7.79296C13.385 7.69745 13.4954 7.62127 13.6174 7.56886C13.7394 7.51645 13.8706 7.48886 14.0034 7.48771C14.1362 7.48655 14.2678 7.51186 14.3907 7.56214C14.5136 7.61242 14.6253 7.68667 14.7192 7.78056C14.8131 7.87446 14.8873 7.98611 14.9376 8.10901C14.9879 8.2319 15.0132 8.36358 15.012 8.49636C15.0109 8.62914 14.9833 8.76036 14.9309 8.88236C14.8785 9.00437 14.8023 9.11471 14.7068 9.20696L10.7068 13.207C10.5193 13.3944 10.265 13.4997 9.99979 13.4997C9.73462 13.4997 9.48031 13.3944 9.29279 13.207L5.29279 9.20696C5.10532 9.01943 5 8.76512 5 8.49996C5 8.23479 5.10532 7.98049 5.29279 7.79296Z" fill="#14213D"/>
</svg>
