<svg width="29" height="29" viewBox="0 0 29 29" fill="none" xmlns="http://www.w3.org/2000/svg">
<path fill-rule="evenodd" clip-rule="evenodd" d="M14.4563 2.67029e-05C6.52059 2.67029e-05 0.0874023 6.43322 0.0874023 14.369C0.0874023 22.3047 6.52059 28.7379 14.4563 28.7379C22.3921 28.7379 28.8253 22.3047 28.8253 14.369C28.8253 6.43322 22.3921 2.67029e-05 14.4563 2.67029e-05ZM15.954 15.0001V22.8176H12.7195V15.0004H11.1036V12.3065H12.7195V10.6891C12.7195 8.49135 13.632 7.1845 16.2244 7.1845H18.3827V9.87874H17.0336C16.0245 9.87874 15.9577 10.2552 15.9577 10.9578L15.954 12.3062H18.398L18.112 15.0001H15.954Z" fill="#14213D"/>
</svg>
