<svg width="463" height="487" viewBox="0 0 463 487" fill="none" xmlns="http://www.w3.org/2000/svg">
<rect width="463" height="487" fill="#CBD5E1"/>
<g opacity="0.4">
<path fill-rule="evenodd" clip-rule="evenodd" d="M218.6 228.45C217.46 228.45 216.366 228.903 215.559 229.709C214.753 230.516 214.3 231.61 214.3 232.75V254.25C214.3 255.39 214.753 256.484 215.559 257.291C216.366 258.097 217.46 258.55 218.6 258.55H244.4C245.54 258.55 246.634 258.097 247.441 257.291C248.247 256.484 248.7 255.39 248.7 254.25V232.75C248.7 231.61 248.247 230.516 247.441 229.709C246.634 228.903 245.54 228.45 244.4 228.45H218.6ZM244.4 254.25H218.6L227.2 237.05L233.65 249.95L237.95 241.35L244.4 254.25Z" fill="#0F172A"/>
</g>
</svg>
