<svg width="511" height="535" viewBox="0 0 511 535" fill="none" xmlns="http://www.w3.org/2000/svg">
<g filter="url(#filter0_d_59_35)">
<rect x="24" y="1" width="463" height="487" rx="20" fill="#CBD5E1"/>
</g>
<g opacity="0.4">
<path fill-rule="evenodd" clip-rule="evenodd" d="M242.6 229.45C241.46 229.45 240.366 229.903 239.559 230.709C238.753 231.516 238.3 232.61 238.3 233.75V255.25C238.3 256.39 238.753 257.484 239.559 258.291C240.366 259.097 241.46 259.55 242.6 259.55H268.4C269.54 259.55 270.634 259.097 271.441 258.291C272.247 257.484 272.7 256.39 272.7 255.25V233.75C272.7 232.61 272.247 231.516 271.441 230.709C270.634 229.903 269.54 229.45 268.4 229.45H242.6ZM268.4 255.25H242.6L251.2 238.05L257.65 250.95L261.95 242.35L268.4 255.25Z" fill="#0F172A"/>
</g>
<defs>
<filter id="filter0_d_59_35" x="0" y="0" width="511" height="535" filterUnits="userSpaceOnUse" color-interpolation-filters="sRGB">
<feFlood flood-opacity="0" result="BackgroundImageFix"/>
<feColorMatrix in="SourceAlpha" type="matrix" values="0 0 0 0 0 0 0 0 0 0 0 0 0 0 0 0 0 0 127 0" result="hardAlpha"/>
<feOffset dy="23"/>
<feGaussianBlur stdDeviation="12"/>
<feComposite in2="hardAlpha" operator="out"/>
<feColorMatrix type="matrix" values="0 0 0 0 0 0 0 0 0 0.46 0 0 0 0 1 0 0 0 0.05 0"/>
<feBlend mode="normal" in2="BackgroundImageFix" result="effect1_dropShadow_59_35"/>
<feBlend mode="normal" in="SourceGraphic" in2="effect1_dropShadow_59_35" result="shape"/>
</filter>
</defs>
</svg>
