<svg width="343" height="405" viewBox="0 0 343 405" fill="none" xmlns="http://www.w3.org/2000/svg">
<path d="M315 4H28C14.7452 4 4 14.7452 4 28V377C4 390.255 14.7452 401 28 401H315C328.255 401 339 390.255 339 377V28C339 14.7452 328.255 4 315 4Z" fill="#CBD5E1" stroke="#F9FAFB" stroke-width="8"/>
<path fill-rule="evenodd" clip-rule="evenodd" d="M158.6 187.45C157.46 187.45 156.366 187.903 155.559 188.709C154.753 189.516 154.3 190.61 154.3 191.75V213.25C154.3 214.39 154.753 215.484 155.559 216.291C156.366 217.097 157.46 217.55 158.6 217.55H184.4C185.54 217.55 186.634 217.097 187.441 216.291C188.247 215.484 188.7 214.39 188.7 213.25V191.75C188.7 190.61 188.247 189.516 187.441 188.709C186.634 187.903 185.54 187.45 184.4 187.45H158.6ZM184.4 213.25H158.6L167.2 196.05L173.65 208.95L177.95 200.35L184.4 213.25Z" fill="#0F172A"/>
</svg>
