<svg width="327" height="389" viewBox="0 0 327 389" fill="none" xmlns="http://www.w3.org/2000/svg">
<path d="M0 20C0 8.95431 8.9543 0 20 0H307C318.046 0 327 8.95431 327 20V369C327 380.046 318.046 389 307 389H20C8.9543 389 0 380.046 0 369V20Z" fill="#CBD5E1"/>
<path fill-rule="evenodd" clip-rule="evenodd" d="M150.6 179.45C149.46 179.45 148.366 179.903 147.559 180.709C146.753 181.516 146.3 182.61 146.3 183.75V205.25C146.3 206.39 146.753 207.484 147.559 208.291C148.366 209.097 149.46 209.55 150.6 209.55H176.4C177.54 209.55 178.634 209.097 179.441 208.291C180.247 207.484 180.7 206.39 180.7 205.25V183.75C180.7 182.61 180.247 181.516 179.441 180.709C178.634 179.903 177.54 179.45 176.4 179.45H150.6ZM176.4 205.25H150.6L159.2 188.05L165.65 200.95L169.95 192.35L176.4 205.25Z" fill="#0F172A"/>
</svg>
