<svg width="29" height="29" viewBox="0 0 29 29" fill="none" xmlns="http://www.w3.org/2000/svg">
<path fill-rule="evenodd" clip-rule="evenodd" d="M14.3689 0C6.43319 0 0 6.43319 0 14.3689C0 22.3047 6.43319 28.7379 14.3689 28.7379C22.3047 28.7379 28.7379 22.3047 28.7379 14.3689C28.7379 6.43319 22.3047 0 14.3689 0ZM11.2097 6.75183C12.0272 6.71463 12.2884 6.70553 14.3697 6.70553H14.3673C16.4492 6.70553 16.7094 6.71463 17.5269 6.75183C18.3427 6.78919 18.8999 6.91835 19.3885 7.10786C19.893 7.30344 20.3193 7.56528 20.7455 7.99156C21.1718 8.41752 21.4337 8.84508 21.63 9.34912C21.8184 9.83639 21.9478 10.3933 21.9861 11.2091C22.0228 12.0266 22.0324 12.2878 22.0324 14.369C22.0324 16.4503 22.0228 16.7109 21.9861 17.5283C21.9478 18.3438 21.8184 18.9009 21.63 19.3883C21.4337 19.8922 21.1718 20.3198 20.7455 20.7457C20.3197 21.172 19.8928 21.4345 19.3889 21.6302C18.9013 21.8197 18.3438 21.9489 17.528 21.9862C16.7105 22.0234 16.4501 22.0325 14.3687 22.0325C12.2876 22.0325 12.0265 22.0234 11.2091 21.9862C10.3934 21.9489 9.83637 21.8197 9.34878 21.6302C8.84507 21.4345 8.41751 21.172 7.9917 20.7457C7.56558 20.3198 7.30374 19.8922 7.10784 19.3882C6.91849 18.9009 6.78933 18.344 6.75181 17.5282C6.71477 16.7107 6.70551 16.4503 6.70551 14.369C6.70551 12.2878 6.71509 12.0264 6.75165 11.209C6.78837 10.3934 6.91769 9.83639 7.10768 9.34896C7.30406 8.84508 7.5659 8.41752 7.99218 7.99156C8.41814 7.56543 8.8457 7.3036 9.34974 7.10786C9.83701 6.91835 10.3939 6.78919 11.2097 6.75183Z" fill="#14213D"/>
<path fill-rule="evenodd" clip-rule="evenodd" d="M13.6822 8.08656C13.8156 8.08635 13.9593 8.08641 14.1142 8.08648L14.3696 8.08656C16.4158 8.08656 16.6583 8.0939 17.4663 8.13062C18.2135 8.16479 18.6191 8.28964 18.8892 8.39453C19.2468 8.53343 19.5018 8.69948 19.7699 8.9677C20.0381 9.23592 20.2041 9.49137 20.3433 9.849C20.4482 10.1188 20.5733 10.5244 20.6073 11.2715C20.644 12.0794 20.652 12.3221 20.652 14.3673C20.652 16.4125 20.644 16.6552 20.6073 17.463C20.5731 18.2102 20.4482 18.6157 20.3433 18.8856C20.2044 19.2432 20.0381 19.4978 19.7699 19.7659C19.5016 20.0341 19.247 20.2002 18.8892 20.3391C18.6194 20.4444 18.2135 20.569 17.4663 20.6031C16.6585 20.6399 16.4158 20.6478 14.3696 20.6478C12.3233 20.6478 12.0808 20.6399 11.2729 20.6031C10.5258 20.5687 10.1202 20.4438 9.84993 20.3389C9.49229 20.2 9.23684 20.034 8.96862 19.7657C8.7004 19.4975 8.53436 19.2427 8.39514 18.8849C8.29024 18.6151 8.16523 18.2096 8.13122 17.4624C8.0945 16.6545 8.08716 16.4118 8.08716 14.3654C8.08716 12.3189 8.0945 12.0775 8.13122 11.2696C8.16539 10.5224 8.29024 10.1169 8.39514 9.84677C8.53404 9.48914 8.7004 9.23369 8.96862 8.96547C9.23684 8.69724 9.49229 8.5312 9.84993 8.39198C10.1201 8.28661 10.5258 8.16207 11.2729 8.12775C11.9799 8.09582 12.2539 8.08624 13.6822 8.08464V8.08656ZM18.4604 9.35902C17.9527 9.35902 17.5407 9.77045 17.5407 10.2783C17.5407 10.786 17.9527 11.1979 18.4604 11.1979C18.9681 11.1979 19.38 10.786 19.38 10.2783C19.38 9.77061 18.9681 9.3587 18.4604 9.3587V9.35902ZM10.4341 14.369C10.4341 12.1957 12.1962 10.4336 14.3695 10.4335C16.5429 10.4335 18.3045 12.1956 18.3045 14.369C18.3045 16.5424 16.5431 18.3038 14.3696 18.3038C12.1962 18.3038 10.4341 16.5424 10.4341 14.369Z" fill="#14213D"/>
<path d="M14.3697 11.8145C15.7804 11.8145 16.9242 12.9582 16.9242 14.369C16.9242 15.7798 15.7804 16.9235 14.3697 16.9235C12.9588 16.9235 11.8152 15.7798 11.8152 14.369C11.8152 12.9582 12.9588 11.8145 14.3697 11.8145V11.8145Z" fill="#14213D"/>
</svg>
