<svg width="29" height="29" viewBox="0 0 29 29" fill="none" xmlns="http://www.w3.org/2000/svg">
<path fill-rule="evenodd" clip-rule="evenodd" d="M14.5437 2.67029e-05C6.60799 2.67029e-05 0.174805 6.43322 0.174805 14.369C0.174805 22.3047 6.60799 28.7379 14.5437 28.7379C22.4795 28.7379 28.9127 22.3047 28.9127 14.369C28.9127 6.43322 22.4795 2.67029e-05 14.5437 2.67029e-05ZM7.07287 11.901H10.3292V21.6849H7.07287V11.901ZM10.5437 8.87446C10.5225 7.91516 9.83653 7.1845 8.72256 7.1845C7.6086 7.1845 6.88033 7.91516 6.88033 8.87446C6.88033 9.81389 7.58707 10.5656 8.68029 10.5656H8.7011C9.83653 10.5656 10.5437 9.81389 10.5437 8.87446ZM18.3235 11.6713C20.4663 11.6713 22.0727 13.0699 22.0727 16.0751L22.0726 21.6849H18.8164V16.4505C18.8164 15.1357 18.3452 14.2386 17.1664 14.2386C16.2668 14.2386 15.7309 14.8434 15.4956 15.4276C15.4095 15.6369 15.3883 15.9286 15.3883 16.221V21.6851H12.1316C12.1316 21.6851 12.1745 12.8193 12.1316 11.9013H15.3883V13.2871C15.8205 12.6209 16.5946 11.6713 18.3235 11.6713Z" fill="#14213D"/>
</svg>
