<svg width="25" height="25" viewBox="0 0 25 25" fill="none" xmlns="http://www.w3.org/2000/svg">
<path d="M2.5 3.75C2.5 3.41848 2.6317 3.10054 2.86612 2.86612C3.10054 2.6317 3.41848 2.5 3.75 2.5H6.44125C6.73713 2.50014 7.02337 2.60523 7.24906 2.79657C7.47474 2.98792 7.62523 3.25312 7.67375 3.545L8.59875 9.08875C8.64295 9.35277 8.60122 9.62401 8.4797 9.86254C8.35819 10.1011 8.16331 10.2943 7.92375 10.4138L5.98875 11.38C6.68263 13.0996 7.71604 14.6616 9.02722 15.9728C10.3384 17.284 11.9004 18.3174 13.62 19.0112L14.5875 17.0763C14.7069 16.8369 14.8999 16.6422 15.1382 16.5207C15.3765 16.3992 15.6474 16.3573 15.9113 16.4013L21.455 17.3263C21.7469 17.3748 22.0121 17.5253 22.2034 17.7509C22.3948 17.9766 22.4999 18.2629 22.5 18.5588V21.25C22.5 21.5815 22.3683 21.8995 22.1339 22.1339C21.8995 22.3683 21.5815 22.5 21.25 22.5H18.75C9.775 22.5 2.5 15.225 2.5 6.25V3.75Z" fill="white"/>
</svg>
