<svg width="29" height="29" viewBox="0 0 29 29" fill="none" xmlns="http://www.w3.org/2000/svg">
<path fill-rule="evenodd" clip-rule="evenodd" d="M14.631 2.67029e-05C6.69527 2.67029e-05 0.262085 6.43322 0.262085 14.369C0.262085 22.3047 6.69527 28.7379 14.631 28.7379C22.5668 28.7379 28.9999 22.3047 28.9999 14.369C28.9999 6.43322 22.5668 2.67029e-05 14.631 2.67029e-05ZM14.2308 12.1765L14.2007 11.6793C14.1102 10.3906 14.9042 9.21358 16.1606 8.75697C16.6229 8.59462 17.4069 8.57433 17.9194 8.71639C18.1205 8.77727 18.5024 8.98021 18.7738 9.16285L19.2662 9.4977L19.809 9.3252C20.1105 9.23388 20.5125 9.08167 20.6935 8.98021C20.8643 8.88888 21.0151 8.83815 21.0151 8.86859C21.0151 9.04109 20.6432 9.62961 20.3316 9.95431C19.9095 10.4109 20.0301 10.4515 20.8844 10.1471C21.397 9.9746 21.4071 9.9746 21.3066 10.1674C21.2462 10.2689 20.9347 10.624 20.603 10.9487C20.0402 11.5068 20.01 11.5677 20.01 12.0344C20.01 12.7548 19.6683 14.2566 19.3266 15.0785C18.6934 16.6208 17.3365 18.2139 15.9796 19.0155C14.07 20.1418 11.5272 20.4259 9.38634 19.7663C8.67274 19.5431 7.44654 18.9749 7.44654 18.8734C7.44654 18.843 7.81842 18.8024 8.2707 18.7922C9.21548 18.772 10.1602 18.5081 10.9643 18.0414L11.5071 17.7167L10.8839 17.5036C9.99944 17.1992 9.20543 16.499 9.00441 15.8395C8.94411 15.6264 8.96421 15.6163 9.52705 15.6163L10.11 15.6061L9.61751 15.3727C9.03456 15.0785 8.50187 14.5813 8.24055 14.0739C8.04959 13.7087 7.80837 12.7853 7.87872 12.7143C7.89883 12.6838 8.10989 12.7447 8.35111 12.8259C9.04461 13.0795 9.13507 13.0187 8.73304 12.5925C7.97923 11.8213 7.74806 10.6747 8.10989 9.58902L8.28076 9.10197L8.94411 9.76152C10.301 11.0908 11.899 11.8822 13.7283 12.1156L14.2308 12.1765Z" fill="#14213D"/>
</svg>
